<svg xmlns="http://www.w3.org/2000/svg" width="489.58" height="116.49" viewBox="0 0 489.58 116.49"><g id="Layer_2" data-name="Layer 2"><g id="Layer_1-2" data-name="Layer 1"><rect x="22.86" y="9.43" width="10.5" height="69" transform="translate(-22.83 32.74) rotate(-45)" style="fill:#a8d4a9"/><path d="M74.25,58.58v-30L64.7,49.67H56.35L46.8,28.57v30H31.15V1.6h17.1L60.52,28.41,72.88,1.6h17v57Z" style="fill:#262626"/><path d="M94.55,46.06a12.15,12.15,0,0,1,2.33-7.38,15.43,15.43,0,0,1,6.46-5,23.19,23.19,0,0,1,9.43-1.81,26,26,0,0,1,4.69.4,14.47,14.47,0,0,1,3.81,1.2V32.18a5.12,5.12,0,0,0-1.72-4.24q-1.72-1.38-5.58-1.38a18.51,18.51,0,0,0-6.62,1.17,32,32,0,0,0-6.46,3.41l-4.41-9.47a33.28,33.28,0,0,1,8.94-4.06,37.08,37.08,0,0,1,10.07-1.32q10,0,15.53,4.43t5.5,13.12v8a4.89,4.89,0,0,0,.64,2.93,3.09,3.09,0,0,0,2.25,1V58.58c-1.23.27-2.4.47-3.49.6a23.54,23.54,0,0,1-2.93.21,10.84,10.84,0,0,1-6.22-1.49A6.93,6.93,0,0,1,124,53.53L123.68,52a19.42,19.42,0,0,1-6.5,5.5,17,17,0,0,1-7.86,1.89,16.21,16.21,0,0,1-7.55-1.74,13.37,13.37,0,0,1-5.29-4.77A12.44,12.44,0,0,1,94.55,46.06Zm24.72.89a6.36,6.36,0,0,0,1.44-1.32,2.42,2.42,0,0,0,.56-1.48v-3a18,18,0,0,0-2.93-.76,16.44,16.44,0,0,0-2.93-.3,8,8,0,0,0-4.61,1.29,3.82,3.82,0,0,0-1.89,3.26,3.16,3.16,0,0,0,.65,1.93A4.22,4.22,0,0,0,111.32,48a6.33,6.33,0,0,0,2.57.49,10.46,10.46,0,0,0,2.85-.42A9.07,9.07,0,0,0,119.27,47Z" style="fill:#262626"/><path d="M171.27,58.58l-9.55-15.2-3.05,3.33V58.58H143.42V0h15.25V32.37L169.9,16.93h16L171.43,35.14l16,23.44Z" style="fill:#262626"/><path d="M207,59.39a26.94,26.94,0,0,1-9.87-1.7,21.14,21.14,0,0,1-7.27-4.63,20,20,0,0,1-4.45-6.72,21.13,21.13,0,0,1-1.52-8,23.17,23.17,0,0,1,2.64-11,20.18,20.18,0,0,1,7.79-8,24.47,24.47,0,0,1,12.68-3,24.79,24.79,0,0,1,12.68,3,20.23,20.23,0,0,1,7.78,7.91,22,22,0,0,1,2.65,10.67c0,.79,0,1.59-.12,2.41s-.17,1.54-.28,2.17H200.08a6.06,6.06,0,0,0,1.24,3.47,6.15,6.15,0,0,0,2.73,1.94,9.66,9.66,0,0,0,3.41.61,10.16,10.16,0,0,0,4.69-1.12,5.61,5.61,0,0,0,2.93-3.13L228,47.91a18.67,18.67,0,0,1-4.69,5.94,22.85,22.85,0,0,1-7.1,4A27,27,0,0,1,207,59.39ZM199.76,33.3h14A7.45,7.45,0,0,0,212.56,30a6.3,6.3,0,0,0-2.41-2.11,8,8,0,0,0-6.82,0A6.23,6.23,0,0,0,200.92,30,7.33,7.33,0,0,0,199.76,33.3Z" style="fill:#262626"/><path d="M262.19,29.37a31.16,31.16,0,0,0-8,1,9.84,9.84,0,0,0-5.38,3.21v25H233.54V16.93h14V24.4a17.58,17.58,0,0,1,5.62-6.54,12.48,12.48,0,0,1,7.14-2.29h1.25a3,3,0,0,1,.68.08Z" style="fill:#262626"/><path d="M282.54,59.39a33.82,33.82,0,0,1-10.87-1.81,24.46,24.46,0,0,1-9-5.26l5.22-9.39a42.46,42.46,0,0,0,7.58,4,18.23,18.23,0,0,0,6.62,1.44,6,6,0,0,0,2.49-.39,1.33,1.33,0,0,0,.8-1.3,1.5,1.5,0,0,0-.56-1.18,6.56,6.56,0,0,0-1.81-1c-.83-.31-1.88-.65-3.17-1-3.31-1.16-6.08-2.23-8.3-3.23a12.63,12.63,0,0,1-5-3.66,9.4,9.4,0,0,1-1.64-5.79,13.35,13.35,0,0,1,2.16-7.53,14.72,14.72,0,0,1,6.22-5.16A22.91,22.91,0,0,1,283,16.29a28.94,28.94,0,0,1,8.55,1.32,23.55,23.55,0,0,1,8.31,4.78L294.1,31.7a40.75,40.75,0,0,0-6.78-3.53,14.16,14.16,0,0,0-4.94-1.05,6,6,0,0,0-1.8.24,2.49,2.49,0,0,0-1.17.7,1.89,1.89,0,0,0-.4,1.26,1.68,1.68,0,0,0,.56,1.29,5.5,5.5,0,0,0,1.77.94c.8.29,1.82.61,3.05,1a62.36,62.36,0,0,1,8.91,3.17,12.78,12.78,0,0,1,5.09,3.87,9.92,9.92,0,0,1,1.65,6,12.2,12.2,0,0,1-4.7,10.17Q290.65,59.39,282.54,59.39Z" style="fill:#a8d4a9"/><path d="M333,59.39a16.89,16.89,0,0,1-7.95-1.78,12.43,12.43,0,0,1-5.21-5.17V75.68H304.61V16.93h13.24v6.38a15.63,15.63,0,0,1,5.58-5.2,16.64,16.64,0,0,1,8.06-1.82,18.93,18.93,0,0,1,7.79,1.58,18.42,18.42,0,0,1,6.18,4.5,20.92,20.92,0,0,1,4.09,6.79A24.22,24.22,0,0,1,351,37.68a25.61,25.61,0,0,1-2.32,11.13,19.44,19.44,0,0,1-6.38,7.73A15.75,15.75,0,0,1,333,59.39Zm-5.3-12.85a6.9,6.9,0,0,0,3.09-.69,7.57,7.57,0,0,0,2.45-1.92,9,9,0,0,0,1.6-2.86,10.29,10.29,0,0,0,.57-3.46,9.29,9.29,0,0,0-.61-3.47,7.58,7.58,0,0,0-1.72-2.66,8,8,0,0,0-2.65-1.73,9,9,0,0,0-3.37-.62,8.29,8.29,0,0,0-2.05.26,8.39,8.39,0,0,0-1.88.75,9.72,9.72,0,0,0-1.73,1.24,9.91,9.91,0,0,0-1.56,1.8v7.18a11.14,11.14,0,0,0,2,3.17,9.61,9.61,0,0,0,2.77,2.21A6.59,6.59,0,0,0,327.72,46.54Z" style="fill:#262626"/><path d="M352.6,46.06a12.21,12.21,0,0,1,2.32-7.38,15.52,15.52,0,0,1,6.47-5,23.18,23.18,0,0,1,9.42-1.81,26,26,0,0,1,4.7.4,14.47,14.47,0,0,1,3.81,1.2V32.18a5.12,5.12,0,0,0-1.72-4.24c-1.16-.92-3-1.38-5.58-1.38a18.51,18.51,0,0,0-6.62,1.17,31.7,31.7,0,0,0-6.46,3.41l-4.42-9.47a33.48,33.48,0,0,1,9-4.06,37.08,37.08,0,0,1,10.07-1.32q10,0,15.53,4.43t5.5,13.12v8a4.89,4.89,0,0,0,.64,2.93,3.09,3.09,0,0,0,2.25,1V58.58c-1.23.27-2.4.47-3.49.6a23.54,23.54,0,0,1-2.93.21,10.82,10.82,0,0,1-6.22-1.49,6.93,6.93,0,0,1-2.77-4.37L381.73,52a19.42,19.42,0,0,1-6.5,5.5,17,17,0,0,1-7.87,1.89,16.2,16.2,0,0,1-7.54-1.74,13.46,13.46,0,0,1-5.3-4.77A12.51,12.51,0,0,1,352.6,46.06Zm24.72.89a6.58,6.58,0,0,0,1.44-1.32,2.42,2.42,0,0,0,.56-1.48v-3a18.3,18.3,0,0,0-2.93-.76,16.53,16.53,0,0,0-2.93-.3,8,8,0,0,0-4.61,1.29A3.82,3.82,0,0,0,367,44.68a3.22,3.22,0,0,0,.64,1.93A4.31,4.31,0,0,0,369.37,48a6.33,6.33,0,0,0,2.57.49,10.46,10.46,0,0,0,2.85-.42A9.07,9.07,0,0,0,377.32,47Z" style="fill:#262626"/><path d="M422.33,59.39a26.28,26.28,0,0,1-9.91-1.74,21,21,0,0,1-7.26-4.78,20.41,20.41,0,0,1-4.49-6.9,22.33,22.33,0,0,1,1.16-18.75,20.3,20.3,0,0,1,7.86-7.93,24.87,24.87,0,0,1,12.64-3,24,24,0,0,1,12.84,3.21A20.57,20.57,0,0,1,443,27.77l-14.85,4.49a7.19,7.19,0,0,0-2.53-2.33,7,7,0,0,0-3.33-.8,7.08,7.08,0,0,0-3.77,1,7.4,7.4,0,0,0-2.69,3,10,10,0,0,0-1,4.7,10.11,10.11,0,0,0,1,4.66,7.45,7.45,0,0,0,2.69,3,7.52,7.52,0,0,0,6.1.67,6.8,6.8,0,0,0,2-1.08,7.32,7.32,0,0,0,1.56-1.68L443,47.91a19.16,19.16,0,0,1-4.62,5.94,22.05,22.05,0,0,1-6.9,4A25.9,25.9,0,0,1,422.33,59.39Z" style="fill:#262626"/><path d="M466.47,59.39a26.94,26.94,0,0,1-9.87-1.7,21,21,0,0,1-7.26-4.63,19.82,19.82,0,0,1-4.45-6.72,21.14,21.14,0,0,1-1.53-8,23.06,23.06,0,0,1,2.65-11,20.16,20.16,0,0,1,7.78-8,24.5,24.5,0,0,1,12.68-3,24.76,24.76,0,0,1,12.68,3,20.33,20.33,0,0,1,7.79,7.91,22.14,22.14,0,0,1,2.64,10.67c0,.79,0,1.59-.12,2.41s-.17,1.54-.28,2.17H459.57a6.07,6.07,0,0,0,1.25,3.47,6.18,6.18,0,0,0,2.72,1.94,9.7,9.7,0,0,0,3.41.61,10.2,10.2,0,0,0,4.7-1.12,5.64,5.64,0,0,0,2.93-3.13l12.92,3.69a18.84,18.84,0,0,1-4.7,5.94,22.73,22.73,0,0,1-7.1,4A26.91,26.91,0,0,1,466.47,59.39ZM459.25,33.3h14A7.45,7.45,0,0,0,472.05,30a6.3,6.3,0,0,0-2.41-2.11,8,8,0,0,0-6.82,0A6.3,6.3,0,0,0,460.41,30,7.45,7.45,0,0,0,459.25,33.3Z" style="fill:#262626"/><path d="M186.39,112.66a3.94,3.94,0,0,1-.15,1.12,3.32,3.32,0,0,1-.43.91,3.23,3.23,0,0,1-.67.71,3.65,3.65,0,0,1-.88.52,4.76,4.76,0,0,1-1,.31,7,7,0,0,1-1.28.1h-3.34a.72.72,0,0,1-.43-.15.65.65,0,0,1-.2-.54V104.23a.65.65,0,0,1,.2-.54.72.72,0,0,1,.43-.15h2.91a6.59,6.59,0,0,1,1.88.22,3.28,3.28,0,0,1,1.22.63,2.59,2.59,0,0,1,.73,1,3.44,3.44,0,0,1,.25,1.36,3.58,3.58,0,0,1-.11.87,2.91,2.91,0,0,1-.32.77,2.86,2.86,0,0,1-.53.63,3,3,0,0,1-.74.45,3.29,3.29,0,0,1,1,.36,3.21,3.21,0,0,1,.8.67,3.37,3.37,0,0,1,.73,2.14Zm-2.56-5.72a2.47,2.47,0,0,0-.13-.84,1.58,1.58,0,0,0-.4-.64,1.93,1.93,0,0,0-.72-.4,4.18,4.18,0,0,0-1.18-.14h-1.75v4.14h1.93a2.69,2.69,0,0,0,1.07-.17,1.9,1.9,0,0,0,.67-.46,1.78,1.78,0,0,0,.39-.68A2.79,2.79,0,0,0,183.83,106.94Zm.77,5.82a2.64,2.64,0,0,0-.18-1,1.94,1.94,0,0,0-.53-.73,2.7,2.7,0,0,0-.88-.45,5,5,0,0,0-1.33-.15h-2v4.51h2.47a3.42,3.42,0,0,0,1-.14,2.28,2.28,0,0,0,.77-.41,2,2,0,0,0,.52-.68A2.28,2.28,0,0,0,184.6,112.76Z" style="fill:#7f7f7f"/><path d="M198.53,111.36v4.72a.2.2,0,0,1,0,.13.28.28,0,0,1-.13.1l-.27.06-.4,0-.41,0-.26-.06a.36.36,0,0,1-.15-.1.28.28,0,0,1,0-.13v-4.72l-3.62-7.22a2,2,0,0,1-.13-.35.19.19,0,0,1,0-.2.43.43,0,0,1,.27-.09l.52,0,.48,0a1.55,1.55,0,0,1,.29,0,.4.4,0,0,1,.16.1,1.11,1.11,0,0,1,.11.16l1.76,3.68c.17.35.33.72.5,1.1l.5,1.16h0c.15-.38.3-.75.46-1.12l.49-1.11,1.78-3.7a.42.42,0,0,1,.09-.16.31.31,0,0,1,.14-.11,1.31,1.31,0,0,1,.27,0l.42,0,.56,0a.5.5,0,0,1,.28.1.2.2,0,0,1,.06.19,1.26,1.26,0,0,1-.14.35Z" style="fill:#7f7f7f"/><path d="M230.53,109.75a9.09,9.09,0,0,1-.42,2.9,5.33,5.33,0,0,1-1.25,2.06,5.14,5.14,0,0,1-2,1.22,8.78,8.78,0,0,1-2.83.4h-2.71a.72.72,0,0,1-.43-.15.65.65,0,0,1-.2-.54V104.23a.65.65,0,0,1,.2-.54.72.72,0,0,1,.43-.15h2.9A8,8,0,0,1,227,104,5.08,5.08,0,0,1,229,105.2a5.3,5.3,0,0,1,1.18,2A7.74,7.74,0,0,1,230.53,109.75Zm-1.79.07a7.05,7.05,0,0,0-.26-1.94,4.19,4.19,0,0,0-.8-1.54,3.67,3.67,0,0,0-1.39-1,5.36,5.36,0,0,0-2.17-.37h-1.73v10h1.75a5.94,5.94,0,0,0,2.07-.31,3.34,3.34,0,0,0,1.4-.94,4.07,4.07,0,0,0,.85-1.58A8,8,0,0,0,228.74,109.82Z" style="fill:#7f7f7f"/><path d="M248.26,115.73a1.13,1.13,0,0,1,.08.35.22.22,0,0,1-.07.2.42.42,0,0,1-.26.09,3.4,3.4,0,0,1-.49,0H247a1.43,1.43,0,0,1-.28,0,.39.39,0,0,1-.14-.1s-.05-.09-.08-.14l-1.1-3.12h-5.32l-1.05,3.08a.69.69,0,0,1-.07.15.58.58,0,0,1-.15.11.77.77,0,0,1-.27.06,2.76,2.76,0,0,1-.44,0l-.47,0a.45.45,0,0,1-.26-.1.24.24,0,0,1-.07-.2,1.13,1.13,0,0,1,.08-.35l4.29-11.89a.56.56,0,0,1,.11-.17.32.32,0,0,1,.19-.11,1.13,1.13,0,0,1,.31-.06h1a1.3,1.3,0,0,1,.33.06.39.39,0,0,1,.2.11.54.54,0,0,1,.11.18Zm-5.51-10.49h0l-2.2,6.38H245Z" style="fill:#7f7f7f"/><path d="M272.34,116a.56.56,0,0,1-.11.17.39.39,0,0,1-.2.11,1.13,1.13,0,0,1-.31.06h-.86a1.84,1.84,0,0,1-.28,0l-.21,0a.61.61,0,0,1-.14-.07.2.2,0,0,1-.09-.09.54.54,0,0,1-.07-.13l-4.18-11.89a1.64,1.64,0,0,1-.09-.35.23.23,0,0,1,.09-.2.5.5,0,0,1,.29-.09l.53,0h.44a.7.7,0,0,1,.25.06.23.23,0,0,1,.13.1.61.61,0,0,1,.09.16l3.67,10.77h0l3.57-10.75a.54.54,0,0,1,.07-.17.21.21,0,0,1,.13-.11.9.9,0,0,1,.28-.06h.48l.48,0a.38.38,0,0,1,.24.1.21.21,0,0,1,.05.2,1.64,1.64,0,0,1-.09.35Z" style="fill:#7f7f7f"/><path d="M286.11,116.08a.28.28,0,0,1,0,.13.39.39,0,0,1-.14.1l-.27.06-.41,0-.4,0-.27-.06a.39.39,0,0,1-.14-.1.28.28,0,0,1,0-.13V103.79a.21.21,0,0,1,.05-.13.36.36,0,0,1,.15-.1l.26-.06.39,0,.41,0,.27.06a.39.39,0,0,1,.14.1.28.28,0,0,1,0,.13Z" style="fill:#7f7f7f"/><path d="M305.31,115.63a.9.9,0,0,1-.06.34.79.79,0,0,1-.18.22.56.56,0,0,1-.24.13.82.82,0,0,1-.26,0H304a2.09,2.09,0,0,1-.46,0,1.07,1.07,0,0,1-.38-.2,2.31,2.31,0,0,1-.36-.39c-.12-.17-.24-.38-.38-.63l-3.9-7.28c-.2-.38-.41-.77-.62-1.18s-.4-.81-.58-1.2h0c0,.47,0,1,0,1.45s0,1,0,1.47v7.73a.22.22,0,0,1,0,.13.32.32,0,0,1-.14.1l-.26.06-.41,0-.41,0-.26-.06a.39.39,0,0,1-.14-.1.33.33,0,0,1,0-.13V104.27a.66.66,0,0,1,.23-.56.75.75,0,0,1,.49-.17h.83a1.79,1.79,0,0,1,.5,0,1,1,0,0,1,.36.16,1.56,1.56,0,0,1,.3.32,3.57,3.57,0,0,1,.31.51l3,5.61c.19.35.37.68.54,1s.34.64.49,1,.32.63.48.93l.46.93h0c0-.52,0-1.06,0-1.63s0-1.1,0-1.62v-7a.28.28,0,0,1,0-.12.4.4,0,0,1,.14-.11.9.9,0,0,1,.27-.06,2.43,2.43,0,0,1,.42,0,2.3,2.3,0,0,1,.39,0,.83.83,0,0,1,.27.06.36.36,0,0,1,.13.11.19.19,0,0,1,0,.12Z" style="fill:#7f7f7f"/><path d="M322.93,114.52c0,.11,0,.2,0,.28a1.12,1.12,0,0,1,0,.21.76.76,0,0,1-.06.16.87.87,0,0,1-.14.16,2.63,2.63,0,0,1-.42.31,5.64,5.64,0,0,1-.78.39,6.29,6.29,0,0,1-1.08.33,6.19,6.19,0,0,1-1.33.13,6,6,0,0,1-2.25-.41,4.57,4.57,0,0,1-1.71-1.23,5.74,5.74,0,0,1-1.09-2,10.05,10.05,0,0,1,0-5.58,6.43,6.43,0,0,1,1.15-2.12,5.14,5.14,0,0,1,1.78-1.32,5.67,5.67,0,0,1,2.29-.45,5.49,5.49,0,0,1,1.08.1,6.51,6.51,0,0,1,1,.27,4.11,4.11,0,0,1,.79.36,2.79,2.79,0,0,1,.48.34,1.73,1.73,0,0,1,.17.21.59.59,0,0,1,.06.16,1.24,1.24,0,0,1,0,.22,2.69,2.69,0,0,1,0,.31,2.92,2.92,0,0,1,0,.33c0,.1,0,.17-.06.24a.34.34,0,0,1-.1.13.19.19,0,0,1-.13,0,.84.84,0,0,1-.39-.19,6.37,6.37,0,0,0-.64-.43,5,5,0,0,0-1-.42,4.17,4.17,0,0,0-1.35-.2,3.64,3.64,0,0,0-1.56.34,3.37,3.37,0,0,0-1.19,1,4.72,4.72,0,0,0-.77,1.61,8.66,8.66,0,0,0,0,4.33,4.33,4.33,0,0,0,.75,1.57,3.2,3.2,0,0,0,1.21,1,4,4,0,0,0,1.62.32,4.21,4.21,0,0,0,1.34-.19,6,6,0,0,0,1-.42,7.13,7.13,0,0,0,.66-.42.76.76,0,0,1,.41-.19l.12,0a.23.23,0,0,1,.08.12,1,1,0,0,1,0,.23A3.57,3.57,0,0,1,322.93,114.52Z" style="fill:#7f7f7f"/><path d="M332.57,116.08a.2.2,0,0,1,0,.13.28.28,0,0,1-.13.1l-.27.06-.41,0-.4,0-.27-.06a.32.32,0,0,1-.14-.1.28.28,0,0,1,0-.13V103.79a.21.21,0,0,1,.05-.13.36.36,0,0,1,.15-.1l.26-.06.39,0,.41,0,.27.06a.28.28,0,0,1,.13.1.2.2,0,0,1,0,.13Z" style="fill:#7f7f7f"/></g></g></svg>